solid OpenSCAD_Model
  facet normal -0.866025 0 0.5
    outer loop
      vertex 4.875 -18 5.35946
      vertex 5.75 2.69957e-31 6.875
      vertex 4.875 2.69957e-31 5.35946
    endloop
  endfacet
  facet normal -0.866025 0 0.5
    outer loop
      vertex 5.75 2.69957e-31 6.875
      vertex 4.875 -18 5.35946
      vertex 5.75 -18 6.875
    endloop
  endfacet
  facet normal 0.866026 0 -0.5
    outer loop
      vertex 3.125 -18 8.39054
      vertex 2.25 2.69957e-31 6.875
      vertex 3.125 2.69957e-31 8.39054
    endloop
  endfacet
  facet normal 0.866026 0 -0.5
    outer loop
      vertex 2.25 2.69957e-31 6.875
      vertex 3.125 -18 8.39054
      vertex 2.25 -18 6.875
    endloop
  endfacet
  facet normal -0 0 1
    outer loop
      vertex 3.125 2.69957e-31 5.35946
      vertex 4.875 -18 5.35946
      vertex 4.875 2.69957e-31 5.35946
    endloop
  endfacet
  facet normal 0 0 1
    outer loop
      vertex 4.875 -18 5.35946
      vertex 3.125 2.69957e-31 5.35946
      vertex 3.125 -18 5.35946
    endloop
  endfacet
  facet normal 0 0 -1
    outer loop
      vertex 3.125 -18 8.39054
      vertex 4.875 2.69957e-31 8.39054
      vertex 4.875 -18 8.39054
    endloop
  endfacet
  facet normal -0 0 -1
    outer loop
      vertex 4.875 2.69957e-31 8.39054
      vertex 3.125 -18 8.39054
      vertex 3.125 2.69957e-31 8.39054
    endloop
  endfacet
  facet normal 0 1 -0
    outer loop
      vertex 85.25 2.69957e-31 6.875
      vertex 4.875 2.69957e-31 8.39054
      vertex 86.125 2.69957e-31 8.39054
    endloop
  endfacet
  facet normal 0 1 0
    outer loop
      vertex 85.25 2.69957e-31 6.875
      vertex 5.75 2.69957e-31 6.875
      vertex 4.875 2.69957e-31 8.39054
    endloop
  endfacet
  facet normal 0 1 0
    outer loop
      vertex 86.125 2.69957e-31 5.35946
      vertex 5.75 2.69957e-31 6.875
      vertex 85.25 2.69957e-31 6.875
    endloop
  endfacet
  facet normal 0 1 0
    outer loop
      vertex 5.75 2.69957e-31 6.875
      vertex 86.125 2.69957e-31 5.35946
      vertex 4.875 2.69957e-31 5.35946
    endloop
  endfacet
  facet normal 0 1 0
    outer loop
      vertex 86.125 2.69957e-31 8.39054
      vertex 91 2.69957e-31 9.75
      vertex 87.875 2.69957e-31 8.39054
    endloop
  endfacet
  facet normal 0 1 0
    outer loop
      vertex 91 2.69957e-31 9.75
      vertex 88.75 2.69957e-31 6.875
      vertex 87.875 2.69957e-31 8.39054
    endloop
  endfacet
  facet normal 0 1 -0
    outer loop
      vertex 91 2.69957e-31 4
      vertex 88.75 2.69957e-31 6.875
      vertex 91 2.69957e-31 9.75
    endloop
  endfacet
  facet normal 0 1 0
    outer loop
      vertex 91 2.69957e-31 4
      vertex 86.125 2.69957e-31 5.35946
      vertex 87.875 2.69957e-31 5.35946
    endloop
  endfacet
  facet normal 0 1 0
    outer loop
      vertex 86.125 2.69957e-31 5.35946
      vertex 91 2.69957e-31 4
      vertex 4.875 2.69957e-31 5.35946
    endloop
  endfacet
  facet normal 0 1 0
    outer loop
      vertex 0 2.69957e-31 4
      vertex 4.875 2.69957e-31 5.35946
      vertex 91 2.69957e-31 4
    endloop
  endfacet
  facet normal 0 1 0
    outer loop
      vertex 88.75 2.69957e-31 6.875
      vertex 91 2.69957e-31 4
      vertex 87.875 2.69957e-31 5.35946
    endloop
  endfacet
  facet normal 0 1 0
    outer loop
      vertex 91 2.69957e-31 9.75
      vertex 86.125 2.69957e-31 8.39054
      vertex 0 2.69957e-31 9.75
    endloop
  endfacet
  facet normal 0 1 -0
    outer loop
      vertex 4.875 2.69957e-31 8.39054
      vertex 0 2.69957e-31 9.75
      vertex 86.125 2.69957e-31 8.39054
    endloop
  endfacet
  facet normal 0 1 -0
    outer loop
      vertex 3.125 2.69957e-31 8.39054
      vertex 0 2.69957e-31 9.75
      vertex 4.875 2.69957e-31 8.39054
    endloop
  endfacet
  facet normal 0 1 -0
    outer loop
      vertex 2.25 2.69957e-31 6.875
      vertex 0 2.69957e-31 9.75
      vertex 3.125 2.69957e-31 8.39054
    endloop
  endfacet
  facet normal 0 1 0
    outer loop
      vertex 0 2.69957e-31 4
      vertex 2.25 2.69957e-31 6.875
      vertex 3.125 2.69957e-31 5.35946
    endloop
  endfacet
  facet normal 0 1 0
    outer loop
      vertex 2.25 2.69957e-31 6.875
      vertex 0 2.69957e-31 4
      vertex 0 2.69957e-31 9.75
    endloop
  endfacet
  facet normal 0 1 0
    outer loop
      vertex 4.875 2.69957e-31 5.35946
      vertex 0 2.69957e-31 4
      vertex 3.125 2.69957e-31 5.35946
    endloop
  endfacet
  facet normal 0.866025 -0 0.5
    outer loop
      vertex 2.25 -18 6.875
      vertex 3.125 2.69957e-31 5.35946
      vertex 2.25 2.69957e-31 6.875
    endloop
  endfacet
  facet normal 0.866025 0 0.5
    outer loop
      vertex 3.125 2.69957e-31 5.35946
      vertex 2.25 -18 6.875
      vertex 3.125 -18 5.35946
    endloop
  endfacet
  facet normal 0 -1 0
    outer loop
      vertex 5.75 -18 6.875
      vertex 7.5 -18 7.25
      vertex 4.875 -18 8.39054
    endloop
  endfacet
  facet normal 0 -1 0
    outer loop
      vertex 5.75 -18 6.875
      vertex 7.5 -18 5.5
      vertex 7.5 -18 7.25
    endloop
  endfacet
  facet normal 0 -1 0
    outer loop
      vertex 4.875 -18 5.35946
      vertex 7.5 -18 5.5
      vertex 5.75 -18 6.875
    endloop
  endfacet
  facet normal 0 -1 0
    outer loop
      vertex 9 -18 4
      vertex 7.5 -18 5.5
      vertex 4.875 -18 5.35946
    endloop
  endfacet
  facet normal 0 -1 -0
    outer loop
      vertex 3.125 -18 5.35946
      vertex 2 -18 4
      vertex 4.875 -18 5.35946
    endloop
  endfacet
  facet normal 0 -1 0
    outer loop
      vertex 9 -18 4
      vertex 4.875 -18 5.35946
      vertex 2 -18 4
    endloop
  endfacet
  facet normal 0 -1 0
    outer loop
      vertex 7.5 -18 5.5
      vertex 9 -18 4
      vertex 9 -18 5.5
    endloop
  endfacet
  facet normal 0 -1 0
    outer loop
      vertex 4.875 -18 8.39054
      vertex 0 -18 9.75
      vertex 3.125 -18 8.39054
    endloop
  endfacet
  facet normal 0 -1 0
    outer loop
      vertex 0 -18 9.75
      vertex 2.25 -18 6.875
      vertex 3.125 -18 8.39054
    endloop
  endfacet
  facet normal 0 -1 0
    outer loop
      vertex 0 -18 4
      vertex 2.25 -18 6.875
      vertex 0 -18 9.75
    endloop
  endfacet
  facet normal 0 -1 -0
    outer loop
      vertex 2.25 -18 6.875
      vertex 2 -18 4
      vertex 3.125 -18 5.35946
    endloop
  endfacet
  facet normal 0 -1 0
    outer loop
      vertex 2 -18 4
      vertex 2.25 -18 6.875
      vertex 0 -18 4
    endloop
  endfacet
  facet normal 0 -1 0
    outer loop
      vertex 0 -18 9.75
      vertex 4.875 -18 8.39054
      vertex 9 -18 9.75
    endloop
  endfacet
  facet normal 0 -1 0
    outer loop
      vertex 7.5 -18 7.25
      vertex 9 -18 9.75
      vertex 4.875 -18 8.39054
    endloop
  endfacet
  facet normal 0 -1 -0
    outer loop
      vertex 9 -18 9.75
      vertex 7.5 -18 7.25
      vertex 9 -18 7.25
    endloop
  endfacet
  facet normal 0 -1 0
    outer loop
      vertex 82 -18 4
      vertex 83.5 -18 5.5
      vertex 82 -18 5.5
    endloop
  endfacet
  facet normal 0 -1 0
    outer loop
      vertex 89 -18 4
      vertex 86.125 -18 5.35946
      vertex 82 -18 4
    endloop
  endfacet
  facet normal 0 -1 -0
    outer loop
      vertex 83.5 -18 5.5
      vertex 82 -18 4
      vertex 86.125 -18 5.35946
    endloop
  endfacet
  facet normal 0 -1 0
    outer loop
      vertex 82 -18 9.75
      vertex 86.125 -18 8.39054
      vertex 91 -18 9.75
    endloop
  endfacet
  facet normal 0 -1 0
    outer loop
      vertex 83.5 -18 7.25
      vertex 82 -18 9.75
      vertex 82 -18 7.25
    endloop
  endfacet
  facet normal 0 -1 0
    outer loop
      vertex 82 -18 9.75
      vertex 83.5 -18 7.25
      vertex 86.125 -18 8.39054
    endloop
  endfacet
  facet normal 0 -1 0
    outer loop
      vertex 83.5 -18 7.25
      vertex 85.25 -18 6.875
      vertex 86.125 -18 8.39054
    endloop
  endfacet
  facet normal 0 -1 0
    outer loop
      vertex 83.5 -18 5.5
      vertex 85.25 -18 6.875
      vertex 83.5 -18 7.25
    endloop
  endfacet
  facet normal 0 -1 -0
    outer loop
      vertex 85.25 -18 6.875
      vertex 83.5 -18 5.5
      vertex 86.125 -18 5.35946
    endloop
  endfacet
  facet normal 0 -1 0
    outer loop
      vertex 87.875 -18 8.39054
      vertex 91 -18 9.75
      vertex 86.125 -18 8.39054
    endloop
  endfacet
  facet normal 0 -1 0
    outer loop
      vertex 88.75 -18 6.875
      vertex 91 -18 9.75
      vertex 87.875 -18 8.39054
    endloop
  endfacet
  facet normal 0 -1 0
    outer loop
      vertex 89 -18 4
      vertex 88.75 -18 6.875
      vertex 87.875 -18 5.35946
    endloop
  endfacet
  facet normal 0 -1 0
    outer loop
      vertex 86.125 -18 5.35946
      vertex 89 -18 4
      vertex 87.875 -18 5.35946
    endloop
  endfacet
  facet normal 0 -1 0
    outer loop
      vertex 88.75 -18 6.875
      vertex 89 -18 4
      vertex 91 -18 4
    endloop
  endfacet
  facet normal 0 -1 0
    outer loop
      vertex 88.75 -18 6.875
      vertex 91 -18 4
      vertex 91 -18 9.75
    endloop
  endfacet
  facet normal -0.866025 0 -0.5
    outer loop
      vertex 5.75 -18 6.875
      vertex 4.875 2.69957e-31 8.39054
      vertex 5.75 2.69957e-31 6.875
    endloop
  endfacet
  facet normal -0.866025 -0 -0.5
    outer loop
      vertex 4.875 2.69957e-31 8.39054
      vertex 5.75 -18 6.875
      vertex 4.875 -18 8.39054
    endloop
  endfacet
  facet normal -0.866025 0 0.5
    outer loop
      vertex 87.875 -18 5.35946
      vertex 88.75 2.69957e-31 6.875
      vertex 87.875 2.69957e-31 5.35946
    endloop
  endfacet
  facet normal -0.866025 0 0.5
    outer loop
      vertex 88.75 2.69957e-31 6.875
      vertex 87.875 -18 5.35946
      vertex 88.75 -18 6.875
    endloop
  endfacet
  facet normal 0.866025 -0 0.5
    outer loop
      vertex 85.25 -18 6.875
      vertex 86.125 2.69957e-31 5.35946
      vertex 85.25 2.69957e-31 6.875
    endloop
  endfacet
  facet normal 0.866025 0 0.5
    outer loop
      vertex 86.125 2.69957e-31 5.35946
      vertex 85.25 -18 6.875
      vertex 86.125 -18 5.35946
    endloop
  endfacet
  facet normal -0 0 1
    outer loop
      vertex 86.125 2.69957e-31 5.35946
      vertex 87.875 -18 5.35946
      vertex 87.875 2.69957e-31 5.35946
    endloop
  endfacet
  facet normal 0 0 1
    outer loop
      vertex 87.875 -18 5.35946
      vertex 86.125 2.69957e-31 5.35946
      vertex 86.125 -18 5.35946
    endloop
  endfacet
  facet normal 0.866025 0 -0.5
    outer loop
      vertex 86.125 -18 8.39054
      vertex 85.25 2.69957e-31 6.875
      vertex 86.125 2.69957e-31 8.39054
    endloop
  endfacet
  facet normal 0.866025 0 -0.5
    outer loop
      vertex 85.25 2.69957e-31 6.875
      vertex 86.125 -18 8.39054
      vertex 85.25 -18 6.875
    endloop
  endfacet
  facet normal 0 0 -1
    outer loop
      vertex 86.125 -18 8.39054
      vertex 87.875 2.69957e-31 8.39054
      vertex 87.875 -18 8.39054
    endloop
  endfacet
  facet normal -0 0 -1
    outer loop
      vertex 87.875 2.69957e-31 8.39054
      vertex 86.125 -18 8.39054
      vertex 86.125 2.69957e-31 8.39054
    endloop
  endfacet
  facet normal -0.866025 0 -0.5
    outer loop
      vertex 88.75 -18 6.875
      vertex 87.875 2.69957e-31 8.39054
      vertex 88.75 2.69957e-31 6.875
    endloop
  endfacet
  facet normal -0.866025 -0 -0.5
    outer loop
      vertex 87.875 2.69957e-31 8.39054
      vertex 88.75 -18 6.875
      vertex 87.875 -18 8.39054
    endloop
  endfacet
  facet normal -1 0 0
    outer loop
      vertex 0 -18 4
      vertex 0 2.69957e-31 9.75
      vertex 0 2.69957e-31 4
    endloop
  endfacet
  facet normal -1 -0 0
    outer loop
      vertex 0 2.69957e-31 9.75
      vertex 0 -18 4
      vertex 0 -18 9.75
    endloop
  endfacet
  facet normal 0 0 1
    outer loop
      vertex 91 2.69957e-31 9.75
      vertex 82 -6.5 9.75
      vertex 91 -18 9.75
    endloop
  endfacet
  facet normal 0 0 1
    outer loop
      vertex 91 2.69957e-31 9.75
      vertex 9 -6.5 9.75
      vertex 82 -6.5 9.75
    endloop
  endfacet
  facet normal -0 0 1
    outer loop
      vertex 0 2.69957e-31 9.75
      vertex 9 -6.5 9.75
      vertex 91 2.69957e-31 9.75
    endloop
  endfacet
  facet normal 0 0 1
    outer loop
      vertex 0 -18 9.75
      vertex 9 -6.5 9.75
      vertex 0 2.69957e-31 9.75
    endloop
  endfacet
  facet normal 0 0 1
    outer loop
      vertex 9 -6.5 9.75
      vertex 0 -18 9.75
      vertex 9 -18 9.75
    endloop
  endfacet
  facet normal 0 0 1
    outer loop
      vertex 91 -18 9.75
      vertex 82 -6.5 9.75
      vertex 82 -18 9.75
    endloop
  endfacet
  facet normal 1 -0 0
    outer loop
      vertex 91 -18 9.75
      vertex 91 2.69957e-31 4
      vertex 91 2.69957e-31 9.75
    endloop
  endfacet
  facet normal 1 0 0
    outer loop
      vertex 91 2.69957e-31 4
      vertex 91 -18 9.75
      vertex 91 -18 4
    endloop
  endfacet
  facet normal 0 0 -1
    outer loop
      vertex 9 -18 4
      vertex 2 -18 4
      vertex 9 -6.5 4
    endloop
  endfacet
  facet normal 0 0 -1
    outer loop
      vertex 82 -6.5 4
      vertex 91 -18 4
      vertex 89 -18 4
    endloop
  endfacet
  facet normal 0 0 -1
    outer loop
      vertex 82 -6.5 4
      vertex 89 -18 4
      vertex 82 -18 4
    endloop
  endfacet
  facet normal 0 0 -1
    outer loop
      vertex 91 -18 4
      vertex 82 -6.5 4
      vertex 91 2.69957e-31 4
    endloop
  endfacet
  facet normal 0 0 -1
    outer loop
      vertex 9 -6.5 4
      vertex 91 2.69957e-31 4
      vertex 82 -6.5 4
    endloop
  endfacet
  facet normal 0 0 -1
    outer loop
      vertex 0 -18 4
      vertex 9 -6.5 4
      vertex 2 -18 4
    endloop
  endfacet
  facet normal 0 0 -1
    outer loop
      vertex 9 -6.5 4
      vertex 0 2.69957e-31 4
      vertex 91 2.69957e-31 4
    endloop
  endfacet
  facet normal 0 0 -1
    outer loop
      vertex 0 2.69957e-31 4
      vertex 9 -6.5 4
      vertex 0 -18 4
    endloop
  endfacet
  facet normal 1 -0 0
    outer loop
      vertex 9 -18 9.75
      vertex 9 -6.5 7.25
      vertex 9 -6.5 9.75
    endloop
  endfacet
  facet normal 1 0 0
    outer loop
      vertex 9 -6.5 7.25
      vertex 9 -18 9.75
      vertex 9 -18 7.25
    endloop
  endfacet
  facet normal 1 -0 0
    outer loop
      vertex 9 -18 5.5
      vertex 9 -6.5 4
      vertex 9 -6.5 5.5
    endloop
  endfacet
  facet normal 1 0 0
    outer loop
      vertex 9 -6.5 4
      vertex 9 -18 5.5
      vertex 9 -18 4
    endloop
  endfacet
  facet normal -1 0 0
    outer loop
      vertex 82 -18 7.25
      vertex 82 -6.5 9.75
      vertex 82 -6.5 7.25
    endloop
  endfacet
  facet normal -1 -0 0
    outer loop
      vertex 82 -6.5 9.75
      vertex 82 -18 7.25
      vertex 82 -18 9.75
    endloop
  endfacet
  facet normal -1 0 0
    outer loop
      vertex 82 -18 4
      vertex 82 -6.5 5.5
      vertex 82 -6.5 4
    endloop
  endfacet
  facet normal -1 -0 0
    outer loop
      vertex 82 -6.5 5.5
      vertex 82 -18 4
      vertex 82 -18 5.5
    endloop
  endfacet
  facet normal 0 -1 0
    outer loop
      vertex 9 -6.5 7.25
      vertex 82 -6.5 9.75
      vertex 9 -6.5 9.75
    endloop
  endfacet
  facet normal 0 -1 -0
    outer loop
      vertex 82 -6.5 9.75
      vertex 9 -6.5 7.25
      vertex 82 -6.5 7.25
    endloop
  endfacet
  facet normal 0 -1 0
    outer loop
      vertex 9 -6.5 4
      vertex 82 -6.5 5.5
      vertex 9 -6.5 5.5
    endloop
  endfacet
  facet normal 0 -1 -0
    outer loop
      vertex 82 -6.5 5.5
      vertex 9 -6.5 4
      vertex 82 -6.5 4
    endloop
  endfacet
  facet normal 1 -0 0
    outer loop
      vertex 7.5 -18 7.25
      vertex 7.5 -5 5.5
      vertex 7.5 -5 7.25
    endloop
  endfacet
  facet normal 1 0 0
    outer loop
      vertex 7.5 -5 5.5
      vertex 7.5 -18 7.25
      vertex 7.5 -18 5.5
    endloop
  endfacet
  facet normal 0 0 -1
    outer loop
      vertex 9 -18 7.25
      vertex 7.5 -18 7.25
      vertex 9 -6.5 7.25
    endloop
  endfacet
  facet normal 0 0 -1
    outer loop
      vertex 82 -6.5 7.25
      vertex 83.5 -18 7.25
      vertex 82 -18 7.25
    endloop
  endfacet
  facet normal 0 0 -1
    outer loop
      vertex 83.5 -18 7.25
      vertex 82 -6.5 7.25
      vertex 83.5 -5 7.25
    endloop
  endfacet
  facet normal 0 0 -1
    outer loop
      vertex 9 -6.5 7.25
      vertex 83.5 -5 7.25
      vertex 82 -6.5 7.25
    endloop
  endfacet
  facet normal 0 0 -1
    outer loop
      vertex 9 -6.5 7.25
      vertex 7.5 -5 7.25
      vertex 83.5 -5 7.25
    endloop
  endfacet
  facet normal 0 0 -1
    outer loop
      vertex 7.5 -5 7.25
      vertex 9 -6.5 7.25
      vertex 7.5 -18 7.25
    endloop
  endfacet
  facet normal -1 0 0
    outer loop
      vertex 83.5 -18 5.5
      vertex 83.5 -5 7.25
      vertex 83.5 -5 5.5
    endloop
  endfacet
  facet normal -1 -0 0
    outer loop
      vertex 83.5 -5 7.25
      vertex 83.5 -18 5.5
      vertex 83.5 -18 7.25
    endloop
  endfacet
  facet normal 0 -1 0
    outer loop
      vertex 7.5 -5 5.5
      vertex 83.5 -5 7.25
      vertex 7.5 -5 7.25
    endloop
  endfacet
  facet normal 0 -1 -0
    outer loop
      vertex 83.5 -5 7.25
      vertex 7.5 -5 5.5
      vertex 83.5 -5 5.5
    endloop
  endfacet
  facet normal 0 0 1
    outer loop
      vertex 83.5 -5 5.5
      vertex 82 -6.5 5.5
      vertex 83.5 -18 5.5
    endloop
  endfacet
  facet normal 0 0 1
    outer loop
      vertex 83.5 -5 5.5
      vertex 9 -6.5 5.5
      vertex 82 -6.5 5.5
    endloop
  endfacet
  facet normal -0 0 1
    outer loop
      vertex 7.5 -5 5.5
      vertex 9 -6.5 5.5
      vertex 83.5 -5 5.5
    endloop
  endfacet
  facet normal 0 0 1
    outer loop
      vertex 7.5 -18 5.5
      vertex 9 -6.5 5.5
      vertex 7.5 -5 5.5
    endloop
  endfacet
  facet normal 0 0 1
    outer loop
      vertex 9 -6.5 5.5
      vertex 7.5 -18 5.5
      vertex 9 -18 5.5
    endloop
  endfacet
  facet normal 0 0 1
    outer loop
      vertex 83.5 -18 5.5
      vertex 82 -6.5 5.5
      vertex 82 -18 5.5
    endloop
  endfacet
  facet normal -1 0 0
    outer loop
      vertex 0 -18 2.20436e-15
      vertex 0 0 4
      vertex 0 -4.89859e-16 0
    endloop
  endfacet
  facet normal -1 -0 0
    outer loop
      vertex 0 0 4
      vertex 0 -18 2.20436e-15
      vertex 0 -18 4
    endloop
  endfacet
  facet normal -0 -1.22465e-16 -1
    outer loop
      vertex 2 -18 2.20436e-15
      vertex 0 -18 2.20436e-15
      vertex 2 -2 2.44929e-16
    endloop
  endfacet
  facet normal 0 -1.22465e-16 -1
    outer loop
      vertex 89 -2 2.44929e-16
      vertex 91 -18 2.20436e-15
      vertex 89 -18 2.20436e-15
    endloop
  endfacet
  facet normal -2.94109e-24 -1.22465e-16 -1
    outer loop
      vertex 91 -18 2.20436e-15
      vertex 89 -2 2.44929e-16
      vertex 91 -4.89859e-16 0
    endloop
  endfacet
  facet normal 0 -1.22465e-16 -1
    outer loop
      vertex 2 -2 2.44929e-16
      vertex 91 -4.89859e-16 0
      vertex 89 -2 2.44929e-16
    endloop
  endfacet
  facet normal 0 -1.22465e-16 -1
    outer loop
      vertex 2 -2 2.44929e-16
      vertex 0 -4.89859e-16 0
      vertex 91 -4.89859e-16 0
    endloop
  endfacet
  facet normal 2.94109e-24 -1.22465e-16 -1
    outer loop
      vertex 0 -4.89859e-16 0
      vertex 2 -2 2.44929e-16
      vertex 0 -18 2.20436e-15
    endloop
  endfacet
  facet normal 1 -0 0
    outer loop
      vertex 2 -18 4
      vertex 2 -2 2.44929e-16
      vertex 2 -2 4
    endloop
  endfacet
  facet normal 1 0 0
    outer loop
      vertex 2 -2 2.44929e-16
      vertex 2 -18 4
      vertex 2 -18 2.20436e-15
    endloop
  endfacet
  facet normal 0 0 1
    outer loop
      vertex 91 0 4
      vertex 89 -2 4
      vertex 91 -18 4
    endloop
  endfacet
  facet normal 0 0 1
    outer loop
      vertex 91 0 4
      vertex 2 -2 4
      vertex 89 -2 4
    endloop
  endfacet
  facet normal -0 0 1
    outer loop
      vertex 0 0 4
      vertex 2 -2 4
      vertex 91 0 4
    endloop
  endfacet
  facet normal 0 0 1
    outer loop
      vertex 0 -18 4
      vertex 2 -2 4
      vertex 0 0 4
    endloop
  endfacet
  facet normal 0 0 1
    outer loop
      vertex 2 -2 4
      vertex 0 -18 4
      vertex 2 -18 4
    endloop
  endfacet
  facet normal 0 0 1
    outer loop
      vertex 91 -18 4
      vertex 89 -2 4
      vertex 89 -18 4
    endloop
  endfacet
  facet normal 0 1 -1.22465e-16
    outer loop
      vertex 91 -4.89859e-16 0
      vertex 0 0 4
      vertex 91 0 4
    endloop
  endfacet
  facet normal 0 1 -1.22465e-16
    outer loop
      vertex 0 0 4
      vertex 91 -4.89859e-16 0
      vertex 0 -4.89859e-16 0
    endloop
  endfacet
  facet normal 0 -1 0
    outer loop
      vertex 0 -18 2.20436e-15
      vertex 2 -18 4
      vertex 0 -18 4
    endloop
  endfacet
  facet normal 0 -1 -0
    outer loop
      vertex 2 -18 4
      vertex 0 -18 2.20436e-15
      vertex 2 -18 2.20436e-15
    endloop
  endfacet
  facet normal -1 0 0
    outer loop
      vertex 89 -18 2.20436e-15
      vertex 89 -2 4
      vertex 89 -2 2.44929e-16
    endloop
  endfacet
  facet normal -1 -0 0
    outer loop
      vertex 89 -2 4
      vertex 89 -18 2.20436e-15
      vertex 89 -18 4
    endloop
  endfacet
  facet normal 1 -0 0
    outer loop
      vertex 91 -18 4
      vertex 91 -4.89859e-16 0
      vertex 91 0 4
    endloop
  endfacet
  facet normal 1 0 0
    outer loop
      vertex 91 -4.89859e-16 0
      vertex 91 -18 4
      vertex 91 -18 2.20436e-15
    endloop
  endfacet
  facet normal 0 -1 0
    outer loop
      vertex 89 -18 2.20436e-15
      vertex 91 -18 4
      vertex 89 -18 4
    endloop
  endfacet
  facet normal 0 -1 -0
    outer loop
      vertex 91 -18 4
      vertex 89 -18 2.20436e-15
      vertex 91 -18 2.20436e-15
    endloop
  endfacet
  facet normal 0 -1 0
    outer loop
      vertex 2 -2 2.44929e-16
      vertex 89 -2 4
      vertex 2 -2 4
    endloop
  endfacet
  facet normal 0 -1 -0
    outer loop
      vertex 89 -2 4
      vertex 2 -2 2.44929e-16
      vertex 89 -2 2.44929e-16
    endloop
  endfacet
endsolid OpenSCAD_Model
